<svg xmlns="http://www.w3.org/2000/svg" viewBox="0 0 110.421 109.846">
  <defs>
    <linearGradient id="a" x1="89.136" x2="147.77" y1="111.92" y2="168.1" gradientTransform="translate(-134.48 -107.53) scale(1.0919)" gradientUnits="userSpaceOnUse">
      <stop offset="0" stop-color="#ffd43b"/>
      <stop offset="1" stop-color="#ffe873"/>
    </linearGradient>
    <linearGradient id="b" x1="55.549" x2="110.15" y1="77.07" y2="131.85" gradientTransform="translate(-134.48 -107.53) scale(1.0919)" gradientUnits="userSpaceOnUse">
      <stop offset="0" stop-color="#5a9fd4"/>
      <stop offset="1" stop-color="#306998"/>
    </linearGradient>
  </defs>
  <path fill="url(#b)" d="M54.919 0c-4.584.022-8.961.412-12.812 1.094-11.346 2.005-13.406 6.2-13.406 13.938v10.219h26.812v3.406H18.638c-7.792 0-14.616 4.684-16.75 13.594-2.462 10.213-2.571 16.586 0 27.25 1.906 7.938 6.458 13.594 14.25 13.594h9.219V70.844c0-8.735 7.554-16.438 16.75-16.438h26.781c7.455 0 13.406-6.138 13.406-13.625V15.031c0-7.266-6.13-12.725-13.406-13.938C64.282.431 59.502-.02 54.918 0zm-14.5 8.219c2.77 0 5.031 2.299 5.031 5.125 0 2.816-2.262 5.094-5.031 5.094-2.78 0-5.031-2.277-5.031-5.094 0-2.826 2.251-5.125 5.031-5.125z"/>
  <path fill="url(#a)" d="M85.638 28.657v12.062c0 9.342-7.92 17.207-16.75 17.207H42.106c-7.336 0-13.406 6.279-13.406 13.625v25.531c0 7.266 6.319 11.54 13.406 13.625 8.487 2.496 16.626 2.947 26.781 0 6.75-1.954 13.406-5.888 13.406-13.625V86.75H55.512v-3.406h40.188c7.792 0 10.696-5.435 13.406-13.594 2.8-8.399 2.68-16.476 0-27.25-1.926-7.757-5.604-13.594-13.406-13.594zM70.918 93.375c2.78 0 5.031 2.278 5.031 5.094 0 2.827-2.251 5.125-5.031 5.125-2.77 0-5.031-2.298-5.031-5.125 0-2.816 2.262-5.094 5.031-5.094z"/>
</svg>
